<?xml version="1.0" standalone="no"?>
<!DOCTYPE svg PUBLIC "-//W3C//DTD SVG 20010904//EN"
 "http://www.w3.org/TR/2001/REC-SVG-20010904/DTD/svg10.dtd">
<svg version="1.0" xmlns="http://www.w3.org/2000/svg"
 width="348.000000pt" height="348.000000pt" viewBox="0 0 348.000000 348.000000"
 preserveAspectRatio="xMidYMid meet">
<metadata>
Created by potrace 1.11, written by Peter Selinger 2001-2013
</metadata>
<g transform="translate(0.000000,348.000000) scale(0.100000,-0.100000)"
fill="#000000" stroke="none">
<path d="M1640 1745 c0 -1642 1 -1733 18 -1737 21 -6 269 -1 285 5 9 3 12 193
12 811 l0 806 55 0 c198 2 686 10 851 15 l196 5 -1 -620 c-1 -407 2 -620 9
-620 12 1 142 97 209 155 l46 40 0 1126 0 1127 -62 54 c-93 80 -188 151 -195
144 -3 -3 -6 -253 -6 -555 l0 -549 -21 3 c-22 4 -67 9 -171 20 -33 3 -73 8
-90 10 -16 2 -73 7 -125 10 -52 4 -111 9 -130 11 -36 3 -368 15 -495 18 l-70
1 0 717 c0 394 -3 719 -7 723 -4 4 -75 9 -157 10 l-151 3 0 -1733z"/>
<path d="M1045 3369 c-33 -11 -95 -33 -137 -50 -77 -31 -78 -32 -79 -68 0 -20
0 -508 -1 -1086 -1 -1083 -4 -1197 -42 -1338 -42 -154 -115 -225 -221 -214
-86 9 -195 71 -296 169 l-56 55 -18 -96 c-9 -53 -18 -101 -20 -107 -8 -26 183
-222 278 -286 99 -67 154 -88 252 -93 196 -11 344 184 394 520 6 39 13 88 17
110 4 22 8 595 10 1273 2 954 0 1232 -9 1231 -7 -1 -39 -10 -72 -20z"/>
</g>
</svg>
